Release info:

General
Format                                   : Matroska
Format version                           : Version 2
File size                                : 691 MiB
Duration                                 : 1h 38mn
Overall bit rate mode                    : Variable
Overall bit rate                         : 978 Kbps

Video
ID                                       : 1
Format                                   : MPEG-4 Visual
Format profile                           : Advanced Simple@L5
Format settings, BVOP                    : Yes
Format settings, QPel                    : No
Format settings, GMC                     : No warppoints
Format settings, Matrix                  : Default (MPEG)
Codec ID                                 : V_MS/VFW/FOURCC / XVID
Codec ID/Hint                            : XviD
Duration                                 : 1h 38mn
Bit rate                                 : 830 Kbps
Width                                    : 624 pixels
Height                                   : 336 pixels
Display aspect ratio                     : 1.85:1
Frame rate mode                          : Constant
Frame rate                               : 23.976 fps
Color space                              : YUV
Chroma subsampling                       : 4:2:0
Bit depth                                : 8 bits
Scan type                                : Progressive
Compression mode                         : Lossy
Bits/(Pixel*Frame)                       : 0.165
Stream size                              : 587 MiB (85%)
Language                                 : English
Default                                  : Yes
Forced                                   : No

Audio
ID                                       : 2
Format                                   : MPEG Audio
Format version                           : Version 1
Format profile                           : Layer 3
Mode                                     : Joint stereo
Muxing mode                              : Header stripping
Codec ID                                 : A_MPEG/L3
Codec ID/Hint                            : MP3
Duration                                 : 1h 16mn
Bit rate mode                            : Variable
Bit rate                                 : 128 Kbps
Channel(s)                               : 2 channels
Sampling rate                            : 48.0 KHz
Compression mode                         : Lossy
Stream size                              : 70.1 MiB (10%)
Language                                 : English
Default                                  : Yes
Forced                                   : No



Source:
credit to original movie ripper DiSPOSABLE (Thanks)

IMDB Info:

The Batman has returned after a 10-year absence. The Gotham authorities want to arrest him. An old foe wants a reunion. The Feds want the Man of Tomorrow to put a stop to him.

Director: Jay Oliva
Writers: Bob Goodman (screenplay), Frank Miller (comic book)
Stars: Peter Weller, Ariel Winter and David Selby

Genres: Animation | Action
 
http://www.imdb.com/title/tt2166834/

Screen Shot:
 
http://www.shotpix.com/images/93298738535801832014.png 
http://www.shotpix.com/images/06261007109709028319.png 
http://www.shotpix.com/images/50945244376123368839.png 
http://www.shotpix.com/images/97225125498067812078.png 
http://www.shotpix.com/images/25369458768586429352.png 
http://www.shotpix.com/images/65617794939780684096.png